<?xml version="1.0" encoding="UTF-8"?>
<svg xmlns="http://www.w3.org/2000/svg" viewBox="0 0 1200 600" aria-hidden="true" role="img">
  <defs>
    <linearGradient id="g" x1="0" y1="0" x2="1" y2="1">
      <stop offset="0%" stop-color="#000" stop-opacity="0.25"/>
      <stop offset="100%" stop-color="#000" stop-opacity="0.05"/>
    </linearGradient>
  </defs>
  <rect width="1200" height="600" fill="url(#g)"/>
  <!-- Simplified abstract outline of Indonesia archipelago for background decoration -->
  <g fill="none" stroke="#000" stroke-opacity="0.35" stroke-width="2">
    <path d="M120 340 C 200 320, 260 300, 340 320 360 330, 400 350, 420 360 460 370, 520 360, 560 350 600 340, 660 330, 720 340 760 350, 800 360, 860 370 900 360, 980 340, 1060 310"/>
    <path d="M250 390 C 280 380, 300 380, 330 390 360 400, 380 410, 410 415"/>
    <path d="M560 410 C 590 400, 620 395, 650 400 680 405, 710 415, 740 420"/>
    <path d="M830 410 C 860 405, 890 400, 920 405 950 410, 980 420, 1010 430"/>
    <path d="M150 300 C 170 290, 200 285, 230 290"/>
    <path d="M1020 300 C 1040 290, 1065 285, 1090 288"/>
  </g>
  <g fill="#000" fill-opacity="0.2">
    <circle cx="360" cy="330" r="4"/>
    <circle cx="410" cy="360" r="3"/>
    <circle cx="520" cy="355" r="3"/>
    <circle cx="660" cy="335" r="3"/>
    <circle cx="780" cy="355" r="3"/>
    <circle cx="900" cy="360" r="4"/>
  </g>
</svg>
